<?xml version="1.0" encoding="UTF-8" standalone="no"?>
<!DOCTYPE svg PUBLIC "-//W3C//DTD SVG 1.1//EN" "http://www.w3.org/Graphics/SVG/1.1/DTD/svg11.dtd">
<svg version="1.1" xmlns="http://www.w3.org/2000/svg" xmlns:xlink="http://www.w3.org/1999/xlink" preserveAspectRatio="xMidYMid meet" viewBox="0 0 178.47 55" width="178.47" height="55"><defs><path d="M179.74 5.62C179.74 31.87 179.74 46.46 179.74 49.38C179.74 53.12 177.96 55 174.39 55C73.72 55 17.79 55 6.61 55C3.05 55 1.27 53.12 1.27 49.38C1.27 23.12 1.27 8.54 1.27 5.62C1.27 1.87 3.05 0 6.61 0C107.27 0 163.2 0 174.39 0C177.96 0 179.74 1.87 179.74 5.62Z" id="c1jtCzh5m4"></path><path d="M179.74 5.62C179.74 31.87 179.74 46.46 179.74 49.38C179.74 53.12 177.96 55 174.39 55C73.72 55 17.79 55 6.61 55C3.05 55 1.27 53.12 1.27 49.38C1.27 23.12 1.27 8.54 1.27 5.62C1.27 1.87 3.05 0 6.61 0C107.27 0 163.2 0 174.39 0C177.96 0 179.74 1.87 179.74 5.62Z" id="b3QGp43mjx"></path><path d="M35.79 39.43C35.79 38.99 35.38 38.62 34.9 38.62C34.67 38.62 34.45 38.68 34.19 38.99C32.73 40.82 30.93 41.86 28.35 41.86C24.16 41.86 20.98 38.5 20.98 34.2C20.98 29.9 24.2 26.57 28.39 26.57C30.93 26.57 32.76 27.61 34.23 29.45C34.45 29.75 34.71 29.83 34.94 29.83C35.38 29.83 35.79 29.45 35.79 29C35.79 28.77 35.76 28.59 35.54 28.29C33.86 26.09 31.42 24.81 28.39 24.81C23.16 24.81 19.04 28.96 19.04 34.2C19.04 39.43 23.16 43.63 28.35 43.63C31.42 43.63 33.78 42.36 35.5 40.14C35.73 39.85 35.79 39.66 35.79 39.43ZM74.11 15.76C74.11 15.24 73.7 14.83 73.18 14.83C72.66 14.83 72.24 15.24 72.24 15.76C72.24 17.05 72.24 27.4 72.24 28.7C70.89 26.38 68.17 24.81 64.95 24.81C59.86 24.81 55.97 28.89 55.97 34.24C55.97 39.55 59.9 43.63 64.95 43.63C68.21 43.63 70.93 42.05 72.24 39.7C72.24 39.99 72.24 42.39 72.24 42.69C72.24 43.21 72.66 43.63 73.18 43.63C73.7 43.63 74.11 43.21 74.11 42.69C74.11 39.99 74.11 18.45 74.11 15.76ZM65.14 26.57C69.4 26.57 72.24 29.64 72.24 34.24C72.24 38.8 69.4 41.86 65.14 41.86C61.02 41.86 57.92 38.62 57.92 34.2C57.92 29.83 60.98 26.57 65.14 26.57ZM87.44 24.81C82.2 24.81 78.09 28.89 78.09 34.2C78.09 39.47 82.2 43.63 87.4 43.63C92.64 43.63 96.79 39.47 96.79 34.2C96.79 28.92 92.64 24.81 87.44 24.81ZM87.44 26.57C91.59 26.57 94.84 29.86 94.84 34.24C94.84 38.54 91.59 41.86 87.4 41.86C83.22 41.86 80.04 38.58 80.04 34.24C80.04 29.86 83.22 26.57 87.44 26.57ZM109.54 15.76C109.54 15.24 109.12 14.83 108.6 14.83C108.08 14.83 107.67 15.24 107.67 15.76C107.67 18.45 107.67 39.99 107.67 42.69C107.67 43.21 108.08 43.63 108.6 43.63C109.16 43.63 109.54 43.21 109.54 42.69C109.54 39.99 109.54 18.45 109.54 15.76ZM127.73 31.91C127.73 27.46 125.19 24.81 120.96 24.81C118.46 24.81 116.28 25.78 114.64 27.73C114.34 28.06 114.22 28.33 114.22 28.59C114.22 29 114.64 29.37 115.09 29.37C115.38 29.37 115.61 29.27 115.87 29C117.33 27.36 118.94 26.57 120.85 26.57C123.99 26.57 125.82 28.52 125.82 31.84C125.82 31.98 125.82 32.66 125.82 33.9C122.05 33.9 119.95 33.9 119.54 33.9C115.72 33.9 113.25 35.77 113.25 38.72C113.25 41.64 115.76 43.63 119.46 43.63C122.22 43.63 124.51 42.46 125.82 40.55C125.82 40.77 125.82 42.47 125.82 42.69C125.82 43.21 126.27 43.63 126.79 43.63C127.31 43.63 127.73 43.21 127.73 42.69C127.73 41.61 127.73 33 127.73 31.91ZM119.72 35.51C120.13 35.51 122.16 35.51 125.82 35.51C125.82 36.12 125.82 36.45 125.82 36.52C125.82 39.55 123.09 41.98 119.65 41.98C116.96 41.98 115.2 40.67 115.2 38.68C115.2 36.67 116.8 35.51 119.72 35.51ZM141.95 24.81C138.73 24.81 136 26.38 134.66 28.7C134.66 27.4 134.66 17.05 134.66 15.76C134.66 15.24 134.24 14.83 133.72 14.83C133.2 14.83 132.79 15.24 132.79 15.76C132.79 18.45 132.79 39.99 132.79 42.69C132.79 43.21 133.2 43.63 133.72 43.63C134.24 43.63 134.66 43.21 134.66 42.69C134.66 42.4 134.66 40.03 134.66 39.74C136 42.05 138.73 43.63 141.95 43.63C147 43.63 150.93 39.55 150.93 34.24C150.93 28.89 147.04 24.81 141.95 24.81ZM141.76 26.57C145.92 26.57 148.98 29.83 148.98 34.2C148.98 38.62 145.88 41.86 141.76 41.86C137.5 41.86 134.66 38.8 134.66 34.24C134.66 29.64 137.5 26.57 141.76 26.57ZM161.41 33.41C161.24 33.34 159.89 32.74 159.73 32.66C157.63 31.77 156.32 31.1 156.32 29.41C156.32 27.42 158.08 26.57 159.98 26.57C161.74 26.57 163.16 27.28 164.28 28.48C164.63 28.77 164.84 28.89 165.11 28.89C165.56 28.89 165.94 28.48 165.94 27.99C165.94 27.8 165.82 27.54 165.59 27.32C164.36 25.9 162.53 24.81 160.1 24.81C157.07 24.81 154.34 26.49 154.34 29.52C154.34 32.1 156.36 33.3 158.79 34.34C158.95 34.42 160.27 34.98 160.43 35.06C162.45 35.96 164.14 36.67 164.14 38.68C164.14 40.82 162.23 41.86 160.06 41.86C157.9 41.86 156.21 40.78 154.79 38.99C154.6 38.76 154.34 38.65 154.08 38.65C153.59 38.65 153.14 39.1 153.14 39.58C153.14 39.81 153.25 40.03 153.41 40.22C154.82 42.17 157.15 43.63 160.06 43.63C163.2 43.63 166.08 41.94 166.08 38.62C166.08 35.92 164.18 34.61 161.41 33.41Z" id="c3WTgxtwgb"></path><path d="M35.79 39.43C35.79 38.99 35.38 38.62 34.9 38.62C34.67 38.62 34.45 38.68 34.19 38.99C32.73 40.82 30.93 41.86 28.35 41.86C24.16 41.86 20.98 38.5 20.98 34.2C20.98 29.9 24.2 26.57 28.39 26.57C30.93 26.57 32.76 27.61 34.23 29.45C34.45 29.75 34.71 29.83 34.94 29.83C35.38 29.83 35.79 29.45 35.79 29C35.79 28.77 35.76 28.59 35.54 28.29C33.86 26.09 31.42 24.81 28.39 24.81C23.16 24.81 19.04 28.96 19.04 34.2C19.04 39.43 23.16 43.63 28.35 43.63C31.42 43.63 33.78 42.36 35.5 40.14C35.73 39.85 35.79 39.66 35.79 39.43ZM74.11 15.76C74.11 15.24 73.7 14.83 73.18 14.83C72.66 14.83 72.24 15.24 72.24 15.76C72.24 17.05 72.24 27.4 72.24 28.7C70.89 26.38 68.17 24.81 64.95 24.81C59.86 24.81 55.97 28.89 55.97 34.24C55.97 39.55 59.9 43.63 64.95 43.63C68.21 43.63 70.93 42.05 72.24 39.7C72.24 39.99 72.24 42.39 72.24 42.69C72.24 43.21 72.66 43.63 73.18 43.63C73.7 43.63 74.11 43.21 74.11 42.69C74.11 39.99 74.11 18.45 74.11 15.76ZM65.14 26.57C69.4 26.57 72.24 29.64 72.24 34.24C72.24 38.8 69.4 41.86 65.14 41.86C61.02 41.86 57.92 38.62 57.92 34.2C57.92 29.83 60.98 26.57 65.14 26.57ZM87.44 24.81C82.2 24.81 78.09 28.89 78.09 34.2C78.09 39.47 82.2 43.63 87.4 43.63C92.64 43.63 96.79 39.47 96.79 34.2C96.79 28.92 92.64 24.81 87.44 24.81ZM87.44 26.57C91.59 26.57 94.84 29.86 94.84 34.24C94.84 38.54 91.59 41.86 87.4 41.86C83.22 41.86 80.04 38.58 80.04 34.24C80.04 29.86 83.22 26.57 87.44 26.57ZM109.54 15.76C109.54 15.24 109.12 14.83 108.6 14.83C108.08 14.83 107.67 15.24 107.67 15.76C107.67 18.45 107.67 39.99 107.67 42.69C107.67 43.21 108.08 43.63 108.6 43.63C109.16 43.63 109.54 43.21 109.54 42.69C109.54 39.99 109.54 18.45 109.54 15.76ZM127.73 31.91C127.73 27.46 125.19 24.81 120.96 24.81C118.46 24.81 116.28 25.78 114.64 27.73C114.34 28.06 114.22 28.33 114.22 28.59C114.22 29 114.64 29.37 115.09 29.37C115.38 29.37 115.61 29.27 115.87 29C117.33 27.36 118.94 26.57 120.85 26.57C123.99 26.57 125.82 28.52 125.82 31.84C125.82 31.98 125.82 32.66 125.82 33.9C122.05 33.9 119.95 33.9 119.54 33.9C115.72 33.9 113.25 35.77 113.25 38.72C113.25 41.64 115.76 43.63 119.46 43.63C122.22 43.63 124.51 42.46 125.82 40.55C125.82 40.77 125.82 42.47 125.82 42.69C125.82 43.21 126.27 43.63 126.79 43.63C127.31 43.63 127.73 43.21 127.73 42.69C127.73 41.61 127.73 33 127.73 31.91ZM119.72 35.51C120.13 35.51 122.16 35.51 125.82 35.51C125.82 36.12 125.82 36.45 125.82 36.52C125.82 39.55 123.09 41.98 119.65 41.98C116.96 41.98 115.2 40.67 115.2 38.68C115.2 36.67 116.8 35.51 119.72 35.51ZM141.95 24.81C138.73 24.81 136 26.38 134.66 28.7C134.66 27.4 134.66 17.05 134.66 15.76C134.66 15.24 134.24 14.83 133.72 14.83C133.2 14.83 132.79 15.24 132.79 15.76C132.79 18.45 132.79 39.99 132.79 42.69C132.79 43.21 133.2 43.63 133.72 43.63C134.24 43.63 134.66 43.21 134.66 42.69C134.66 42.4 134.66 40.03 134.66 39.74C136 42.05 138.73 43.63 141.95 43.63C147 43.63 150.93 39.55 150.93 34.24C150.93 28.89 147.04 24.81 141.95 24.81ZM141.76 26.57C145.92 26.57 148.98 29.83 148.98 34.2C148.98 38.62 145.88 41.86 141.76 41.86C137.5 41.86 134.66 38.8 134.66 34.24C134.66 29.64 137.5 26.57 141.76 26.57ZM161.41 33.41C161.24 33.34 159.89 32.74 159.73 32.66C157.63 31.77 156.32 31.1 156.32 29.41C156.32 27.42 158.08 26.57 159.98 26.57C161.74 26.57 163.16 27.28 164.28 28.48C164.63 28.77 164.84 28.89 165.11 28.89C165.56 28.89 165.94 28.48 165.94 27.99C165.94 27.8 165.82 27.54 165.59 27.32C164.36 25.9 162.53 24.81 160.1 24.81C157.07 24.81 154.34 26.49 154.34 29.52C154.34 32.1 156.36 33.3 158.79 34.34C158.95 34.42 160.27 34.98 160.43 35.06C162.45 35.96 164.14 36.67 164.14 38.68C164.14 40.82 162.23 41.86 160.06 41.86C157.9 41.86 156.21 40.78 154.79 38.99C154.6 38.76 154.34 38.65 154.08 38.65C153.59 38.65 153.14 39.1 153.14 39.58C153.14 39.81 153.25 40.03 153.41 40.22C154.82 42.17 157.15 43.63 160.06 43.63C163.2 43.63 166.08 41.94 166.08 38.62C166.08 35.92 164.18 34.61 161.41 33.41Z" id="a2ydlhmvbL"></path><path d="M46 26.3C43.84 26.3 42.07 28.07 42.07 30.25C42.07 30.37 42.07 31.3 42.07 31.42C42.07 32.05 41.96 32.68 41.71 33.27C41.62 33.52 40.85 35.46 40.77 35.69C40.56 36.2 40.46 36.72 40.45 37.25C40.46 40.03 42.71 42.3 45.5 42.31C45.6 42.31 46.42 42.31 46.51 42.31C49.29 42.3 51.54 40.03 51.55 37.25C51.55 36.71 51.45 36.17 51.25 35.67C51.25 35.67 51.25 35.67 51.24 35.66C50.67 34.21 50.35 33.39 50.29 33.23C50.06 32.66 49.94 32.05 49.94 31.42C49.94 31.3 49.94 30.37 49.94 30.25C49.94 28.07 48.17 26.3 46 26.3M46.51 44.15C45.9 44.15 45.56 44.15 45.49 44.15C41.71 44.14 38.62 41.05 38.62 37.25C38.62 36.48 38.77 35.73 39.06 35.01C39.15 34.77 39.92 32.83 40.01 32.59C40.17 32.21 40.23 30.25 40.23 30.25C40.23 27.06 42.82 24.46 46 24.46C49.18 24.46 51.77 27.06 51.77 30.25C51.77 30.25 51.85 32.19 52 32.55C52.09 32.79 52.85 34.74 52.95 34.98C53.24 35.7 53.38 36.47 53.38 37.25C53.38 41.05 50.29 44.14 46.51 44.15" id="a42LKwmz5"></path><path d="M46 26.3C43.84 26.3 42.07 28.07 42.07 30.25C42.07 30.37 42.07 31.3 42.07 31.42C42.07 32.05 41.96 32.68 41.71 33.27C41.62 33.52 40.85 35.46 40.77 35.69C40.56 36.2 40.46 36.72 40.45 37.25C40.46 40.03 42.71 42.3 45.5 42.31C45.6 42.31 46.42 42.31 46.51 42.31C49.29 42.3 51.54 40.03 51.55 37.25C51.55 36.71 51.45 36.17 51.25 35.67C51.25 35.67 51.25 35.67 51.24 35.66C50.67 34.21 50.35 33.39 50.29 33.23C50.06 32.66 49.94 32.05 49.94 31.42C49.94 31.3 49.94 30.37 49.94 30.25C49.94 28.07 48.17 26.3 46 26.3M46.51 44.15C45.9 44.15 45.56 44.15 45.49 44.15C41.71 44.14 38.62 41.05 38.62 37.25C38.62 36.48 38.77 35.73 39.06 35.01C39.15 34.77 39.92 32.83 40.01 32.59C40.17 32.21 40.23 30.25 40.23 30.25C40.23 27.06 42.82 24.46 46 24.46C49.18 24.46 51.77 27.06 51.77 30.25C51.77 30.25 51.85 32.19 52 32.55C52.09 32.79 52.85 34.74 52.95 34.98C53.24 35.7 53.38 36.47 53.38 37.25C53.38 41.05 50.29 44.14 46.51 44.15" id="ctL3zcdY"></path><path d="M45.98 38.82C45.17 38.82 44.51 38.16 44.51 37.35C44.51 36.53 45.17 35.87 45.98 35.87C46.8 35.87 47.46 36.53 47.46 37.35C47.46 38.16 46.8 38.82 45.98 38.82" id="a1V9crPdlE"></path><path d="M45.98 38.82C45.17 38.82 44.51 38.16 44.51 37.35C44.51 36.53 45.17 35.87 45.98 35.87C46.8 35.87 47.46 36.53 47.46 37.35C47.46 38.16 46.8 38.82 45.98 38.82" id="aSi7I7WYl"></path><path d="M9.2 8.05C8.96 7.95 8.72 7.84 8.44 7.73C8.17 7.63 7.91 7.49 7.66 7.33C7.44 7.17 7.24 6.96 7.08 6.73C6.92 6.46 6.84 6.14 6.85 5.83C6.85 5.54 6.9 5.26 7.01 4.99C7.12 4.77 7.29 4.56 7.5 4.41C7.71 4.24 7.96 4.14 8.22 4.07C8.53 3.99 8.85 3.95 9.17 3.96C9.55 3.95 9.93 3.99 10.3 4.05C10.61 4.1 10.9 4.2 11.18 4.33C11.14 4.44 10.81 5.3 10.77 5.41C10.58 5.3 10.36 5.22 10.12 5.17C9.82 5.1 9.51 5.06 9.19 5.06C8.94 5.05 8.69 5.11 8.47 5.24C8.31 5.35 8.22 5.53 8.22 5.72C8.22 5.91 8.32 6.08 8.49 6.18C8.67 6.33 8.85 6.45 9.06 6.54C9.14 6.57 9.75 6.83 9.83 6.86C10.1 6.97 10.34 7.11 10.58 7.27C10.81 7.43 11.01 7.63 11.16 7.87C11.33 8.13 11.4 8.43 11.39 8.74C11.4 9.05 11.35 9.35 11.21 9.65C11.09 9.88 10.92 10.1 10.71 10.28C10.46 10.45 10.18 10.57 9.88 10.65C9.54 10.73 9.2 10.77 8.85 10.77C8.41 10.78 7.98 10.73 7.55 10.63C7.26 10.57 6.98 10.49 6.73 10.38C6.77 10.27 7.11 9.41 7.15 9.3C7.24 9.35 7.34 9.39 7.43 9.43C7.56 9.48 7.68 9.52 7.81 9.56C7.86 9.57 8.22 9.64 8.27 9.65C8.44 9.67 8.61 9.67 8.78 9.65C9.09 9.67 9.42 9.6 9.69 9.46C9.91 9.33 10.03 9.12 10.02 8.88C10.02 8.88 10.02 8.88 10.02 8.88C9.96 8.63 9.89 8.47 9.78 8.39C9.6 8.25 9.42 8.14 9.2 8.05Z" id="bBO9LR9R6"></path><path d="M9.2 8.05C8.96 7.95 8.72 7.84 8.44 7.73C8.17 7.63 7.91 7.49 7.66 7.33C7.44 7.17 7.24 6.96 7.08 6.73C6.92 6.46 6.84 6.14 6.85 5.83C6.85 5.54 6.9 5.26 7.01 4.99C7.12 4.77 7.29 4.56 7.5 4.41C7.71 4.24 7.96 4.14 8.22 4.07C8.53 3.99 8.85 3.95 9.17 3.96C9.55 3.95 9.93 3.99 10.3 4.05C10.61 4.1 10.9 4.2 11.18 4.33C11.14 4.44 10.81 5.3 10.77 5.41C10.58 5.3 10.36 5.22 10.12 5.17C9.82 5.1 9.51 5.06 9.19 5.06C8.94 5.05 8.69 5.11 8.47 5.24C8.31 5.35 8.22 5.53 8.22 5.72C8.22 5.91 8.32 6.08 8.49 6.18C8.67 6.33 8.85 6.45 9.06 6.54C9.14 6.57 9.75 6.83 9.83 6.86C10.1 6.97 10.34 7.11 10.58 7.27C10.81 7.43 11.01 7.63 11.16 7.87C11.33 8.13 11.4 8.43 11.39 8.74C11.4 9.05 11.35 9.35 11.21 9.65C11.09 9.88 10.92 10.1 10.71 10.28C10.46 10.45 10.18 10.57 9.88 10.65C9.54 10.73 9.2 10.77 8.85 10.77C8.41 10.78 7.98 10.73 7.55 10.63C7.26 10.57 6.98 10.49 6.73 10.38C6.77 10.27 7.11 9.41 7.15 9.3C7.24 9.35 7.34 9.39 7.43 9.43C7.56 9.48 7.68 9.52 7.81 9.56C7.86 9.57 8.22 9.64 8.27 9.65C8.44 9.67 8.61 9.67 8.78 9.65C9.09 9.67 9.42 9.6 9.69 9.46C9.91 9.33 10.03 9.12 10.02 8.88C10.02 8.88 10.02 8.88 10.02 8.88C9.96 8.63 9.89 8.47 9.78 8.39C9.6 8.25 9.42 8.14 9.2 8.05Z" id="bBEbDgGEn"></path><path d="M13.6 9.44C13.72 9.62 13.93 9.72 14.16 9.69C14.38 9.7 14.59 9.63 14.76 9.49C14.93 9.34 15.05 9.18 15.12 8.98C15.12 8.78 15.12 7.77 15.12 5.96C15.25 5.96 16.28 5.96 16.4 5.96C16.4 7.91 16.4 9 16.4 9.22C16.4 9.47 16.4 9.72 16.4 9.99C16.43 10.22 16.47 10.44 16.52 10.66C16.46 10.66 16.15 10.66 15.59 10.66C15.57 10.59 15.39 10.04 15.37 9.97C15.34 9.97 15.33 9.97 15.33 9.97C15.17 10.21 14.96 10.42 14.7 10.55C14.41 10.72 14.08 10.8 13.75 10.79C13.52 10.79 13.29 10.76 13.08 10.7C12.88 10.64 12.71 10.53 12.59 10.4C12.44 10.22 12.34 10.02 12.28 9.81C12.2 9.51 12.17 9.21 12.18 8.89C12.18 8.69 12.18 7.72 12.18 5.96C12.31 5.96 13.33 5.96 13.46 5.96C13.46 7.55 13.46 8.44 13.46 8.61C13.44 8.9 13.49 9.18 13.6 9.44Z" id="fvcKbcsuk"></path><path d="M13.6 9.44C13.72 9.62 13.93 9.72 14.16 9.69C14.38 9.7 14.59 9.63 14.76 9.49C14.93 9.34 15.05 9.18 15.12 8.98C15.12 8.78 15.12 7.77 15.12 5.96C15.25 5.96 16.28 5.96 16.4 5.96C16.4 7.91 16.4 9 16.4 9.22C16.4 9.47 16.4 9.72 16.4 9.99C16.43 10.22 16.47 10.44 16.52 10.66C16.46 10.66 16.15 10.66 15.59 10.66C15.57 10.59 15.39 10.04 15.37 9.97C15.34 9.97 15.33 9.97 15.33 9.97C15.17 10.21 14.96 10.42 14.7 10.55C14.41 10.72 14.08 10.8 13.75 10.79C13.52 10.79 13.29 10.76 13.08 10.7C12.88 10.64 12.71 10.53 12.59 10.4C12.44 10.22 12.34 10.02 12.28 9.81C12.2 9.51 12.17 9.21 12.18 8.89C12.18 8.69 12.18 7.72 12.18 5.96C12.31 5.96 13.33 5.96 13.46 5.96C13.46 7.55 13.46 8.44 13.46 8.61C13.44 8.9 13.49 9.18 13.6 9.44Z" id="a6A8Vwjg0"></path><path d="M18.59 6.52C18.62 6.52 18.63 6.52 18.64 6.52C18.8 6.29 19 6.11 19.24 5.99C19.5 5.88 19.78 5.82 20.07 5.83C20.59 5.79 21.11 6 21.44 6.38C21.81 6.91 21.97 7.54 21.91 8.17C21.92 8.54 21.87 8.9 21.76 9.25C21.69 9.56 21.56 9.85 21.37 10.09C21.18 10.31 20.93 10.48 20.66 10.6C20.36 10.73 20.04 10.79 19.7 10.78C19.53 10.78 19.36 10.77 19.19 10.74C19.05 10.71 18.92 10.66 18.8 10.6C18.8 10.73 18.8 11.36 18.8 12.5C18.71 12.5 18.28 12.5 17.51 12.5L17.51 5.96L18.44 5.96C18.53 6.29 18.58 6.48 18.59 6.52ZM18.79 7.57C18.79 7.76 18.79 9.31 18.79 9.51C18.88 9.58 18.98 9.64 19.09 9.68C19.23 9.73 19.38 9.75 19.52 9.74C19.84 9.76 20.15 9.62 20.34 9.37C20.56 9 20.66 8.58 20.62 8.14C20.64 7.82 20.57 7.48 20.4 7.2C20.25 6.97 20 6.84 19.72 6.85C19.72 6.85 19.71 6.85 19.71 6.85C19.43 6.89 19.24 6.94 19.13 7.03C18.96 7.18 18.85 7.36 18.79 7.57Z" id="c2Lu1apVs8"></path><path d="M18.59 6.52C18.62 6.52 18.63 6.52 18.64 6.52C18.8 6.29 19 6.11 19.24 5.99C19.5 5.88 19.78 5.82 20.07 5.83C20.59 5.79 21.11 6 21.44 6.38C21.81 6.91 21.97 7.54 21.91 8.17C21.92 8.54 21.87 8.9 21.76 9.25C21.69 9.56 21.56 9.85 21.37 10.09C21.18 10.31 20.93 10.48 20.66 10.6C20.36 10.73 20.04 10.79 19.7 10.78C19.53 10.78 19.36 10.77 19.19 10.74C19.05 10.71 18.92 10.66 18.8 10.6C18.8 10.73 18.8 11.36 18.8 12.5C18.71 12.5 18.28 12.5 17.51 12.5L17.51 5.96L18.44 5.96C18.53 6.29 18.58 6.48 18.59 6.52ZM18.79 7.57C18.79 7.76 18.79 9.31 18.79 9.51C18.88 9.58 18.98 9.64 19.09 9.68C19.23 9.73 19.38 9.75 19.52 9.74C19.84 9.76 20.15 9.62 20.34 9.37C20.56 9 20.66 8.58 20.62 8.14C20.64 7.82 20.57 7.48 20.4 7.2C20.25 6.97 20 6.84 19.72 6.85C19.72 6.85 19.71 6.85 19.71 6.85C19.43 6.89 19.24 6.94 19.13 7.03C18.96 7.18 18.85 7.36 18.79 7.57Z" id="a1gLfYbaDO"></path><path d="M23.91 6.52C23.94 6.52 23.95 6.52 23.95 6.52C24.11 6.29 24.32 6.11 24.56 5.99C24.82 5.88 25.11 5.82 25.38 5.83C25.91 5.79 26.43 6 26.77 6.38C27.12 6.91 27.29 7.54 27.23 8.17C27.23 8.54 27.18 8.9 27.08 9.25C27.01 9.56 26.88 9.85 26.68 10.09C26.49 10.31 26.25 10.48 25.97 10.6C25.68 10.73 25.35 10.79 25.02 10.78C24.85 10.78 24.67 10.77 24.51 10.74C24.37 10.71 24.24 10.66 24.11 10.6C24.11 10.73 24.11 11.36 24.11 12.5C24.03 12.5 23.6 12.5 22.83 12.5L22.83 5.96L23.77 5.96C23.86 6.29 23.9 6.48 23.91 6.52ZM24.11 7.57C24.11 7.76 24.11 9.31 24.11 9.51C24.21 9.58 24.31 9.64 24.42 9.68C24.55 9.73 24.7 9.75 24.84 9.74C25.16 9.76 25.47 9.62 25.67 9.37C25.88 9 25.98 8.58 25.94 8.14C25.96 7.82 25.88 7.48 25.72 7.2C25.57 6.97 25.31 6.84 25.04 6.85C25.04 6.85 25.04 6.85 25.04 6.85C24.75 6.89 24.56 6.94 24.45 7.03C24.29 7.18 24.17 7.36 24.11 7.57Z" id="b28V8rsymp"></path><path d="M23.91 6.52C23.94 6.52 23.95 6.52 23.95 6.52C24.11 6.29 24.32 6.11 24.56 5.99C24.82 5.88 25.11 5.82 25.38 5.83C25.91 5.79 26.43 6 26.77 6.38C27.12 6.91 27.29 7.54 27.23 8.17C27.23 8.54 27.18 8.9 27.08 9.25C27.01 9.56 26.88 9.85 26.68 10.09C26.49 10.31 26.25 10.48 25.97 10.6C25.68 10.73 25.35 10.79 25.02 10.78C24.85 10.78 24.67 10.77 24.51 10.74C24.37 10.71 24.24 10.66 24.11 10.6C24.11 10.73 24.11 11.36 24.11 12.5C24.03 12.5 23.6 12.5 22.83 12.5L22.83 5.96L23.77 5.96C23.86 6.29 23.9 6.48 23.91 6.52ZM24.11 7.57C24.11 7.76 24.11 9.31 24.11 9.51C24.21 9.58 24.31 9.64 24.42 9.68C24.55 9.73 24.7 9.75 24.84 9.74C25.16 9.76 25.47 9.62 25.67 9.37C25.88 9 25.98 8.58 25.94 8.14C25.96 7.82 25.88 7.48 25.72 7.2C25.57 6.97 25.31 6.84 25.04 6.85C25.04 6.85 25.04 6.85 25.04 6.85C24.75 6.89 24.56 6.94 24.45 7.03C24.29 7.18 24.17 7.36 24.11 7.57Z" id="arUE0B22Z"></path><path d="M30.24 5.83C30.59 5.82 30.94 5.88 31.27 6C31.54 6.11 31.79 6.29 31.98 6.51C32.18 6.73 32.33 7 32.41 7.29C32.51 7.61 32.56 7.96 32.56 8.29C32.6 8.96 32.38 9.61 31.95 10.13C31.5 10.57 30.88 10.8 30.24 10.77C29.89 10.78 29.54 10.72 29.22 10.58C28.93 10.48 28.69 10.31 28.49 10.09C28.29 9.86 28.15 9.6 28.06 9.3C27.96 8.98 27.91 8.63 27.92 8.29C27.87 7.63 28.09 6.98 28.53 6.47C28.97 6.03 29.6 5.79 30.24 5.83ZM29.47 9.32C29.62 9.59 29.92 9.76 30.24 9.74C30.54 9.76 30.82 9.63 30.99 9.39C31.18 9.06 31.27 8.67 31.24 8.29C31.25 7.94 31.17 7.58 31 7.26C30.85 6.99 30.56 6.84 30.24 6.85C29.95 6.83 29.67 6.96 29.51 7.2C29.3 7.52 29.2 7.91 29.23 8.29C29.23 8.49 29.26 8.68 29.3 8.87C29.33 9.03 29.39 9.19 29.47 9.32Z" id="afFATavM7"></path><path d="M30.24 5.83C30.59 5.82 30.94 5.88 31.27 6C31.54 6.11 31.79 6.29 31.98 6.51C32.18 6.73 32.33 7 32.41 7.29C32.51 7.61 32.56 7.96 32.56 8.29C32.6 8.96 32.38 9.61 31.95 10.13C31.5 10.57 30.88 10.8 30.24 10.77C29.89 10.78 29.54 10.72 29.22 10.58C28.93 10.48 28.69 10.31 28.49 10.09C28.29 9.86 28.15 9.6 28.06 9.3C27.96 8.98 27.91 8.63 27.92 8.29C27.87 7.63 28.09 6.98 28.53 6.47C28.97 6.03 29.6 5.79 30.24 5.83ZM29.47 9.32C29.62 9.59 29.92 9.76 30.24 9.74C30.54 9.76 30.82 9.63 30.99 9.39C31.18 9.06 31.27 8.67 31.24 8.29C31.25 7.94 31.17 7.58 31 7.26C30.85 6.99 30.56 6.84 30.24 6.85C29.95 6.83 29.67 6.96 29.51 7.2C29.3 7.52 29.2 7.91 29.23 8.29C29.23 8.49 29.26 8.68 29.3 8.87C29.33 9.03 29.39 9.19 29.47 9.32Z" id="awx2qBxmV"></path><path d="M35.03 7.17C34.88 7.28 34.77 7.43 34.72 7.61C34.72 7.82 34.72 8.82 34.72 10.63C34.64 10.63 34.21 10.63 33.44 10.63L33.44 5.96L34.44 5.96C34.53 6.33 34.57 6.54 34.58 6.58C34.58 6.58 34.58 6.58 34.58 6.58C34.67 6.36 34.83 6.17 35.03 6.04C35.23 5.91 35.47 5.85 35.71 5.85C35.9 5.86 36.09 5.89 36.28 5.96C36.27 6.03 36.23 6.41 36.16 7.1C35.91 7.03 35.74 7 35.61 7C35.4 6.99 35.19 7.05 35.03 7.17Z" id="a39kO9RfB"></path><path d="M35.03 7.17C34.88 7.28 34.77 7.43 34.72 7.61C34.72 7.82 34.72 8.82 34.72 10.63C34.64 10.63 34.21 10.63 33.44 10.63L33.44 5.96L34.44 5.96C34.53 6.33 34.57 6.54 34.58 6.58C34.58 6.58 34.58 6.58 34.58 6.58C34.67 6.36 34.83 6.17 35.03 6.04C35.23 5.91 35.47 5.85 35.71 5.85C35.9 5.86 36.09 5.89 36.28 5.96C36.27 6.03 36.23 6.41 36.16 7.1C35.91 7.03 35.74 7 35.61 7C35.4 6.99 35.19 7.05 35.03 7.17Z" id="c45I0cIkRr"></path><path d="M37.35 5.08L38.63 4.73L38.63 5.96L39.84 5.96L39.84 6.97C39.11 6.97 38.71 6.97 38.63 6.97C38.63 8.04 38.63 8.65 38.63 8.77C38.62 9.01 38.65 9.24 38.74 9.46C38.81 9.61 38.96 9.69 39.12 9.68C39.24 9.69 39.36 9.69 39.47 9.68C39.49 9.67 39.59 9.63 39.79 9.57C39.92 10.13 40 10.44 40.01 10.5C39.81 10.59 39.6 10.65 39.4 10.7C39.16 10.76 38.91 10.79 38.67 10.79C38.3 10.82 37.94 10.7 37.67 10.47C37.43 10.15 37.32 9.76 37.35 9.37C37.35 9.21 37.35 8.41 37.35 6.97C37.31 6.97 37.08 6.97 36.68 6.97L36.68 5.96L37.35 5.96L37.35 5.08Z" id="iRKY6Wf4"></path><path d="M37.35 5.08L38.63 4.73L38.63 5.96L39.84 5.96L39.84 6.97C39.11 6.97 38.71 6.97 38.63 6.97C38.63 8.04 38.63 8.65 38.63 8.77C38.62 9.01 38.65 9.24 38.74 9.46C38.81 9.61 38.96 9.69 39.12 9.68C39.24 9.69 39.36 9.69 39.47 9.68C39.49 9.67 39.59 9.63 39.79 9.57C39.92 10.13 40 10.44 40.01 10.5C39.81 10.59 39.6 10.65 39.4 10.7C39.16 10.76 38.91 10.79 38.67 10.79C38.3 10.82 37.94 10.7 37.67 10.47C37.43 10.15 37.32 9.76 37.35 9.37C37.35 9.21 37.35 8.41 37.35 6.97C37.31 6.97 37.08 6.97 36.68 6.97L36.68 5.96L37.35 5.96L37.35 5.08Z" id="e7ky2Orsi"></path><path d="M42.62 10.77C41.97 10.81 41.33 10.56 40.88 10.09C40.49 9.56 40.3 8.92 40.34 8.27C40.28 7.6 40.51 6.93 40.96 6.42C41.42 5.99 42.05 5.77 42.7 5.8C42.95 5.8 43.2 5.84 43.43 5.9C43.66 5.96 43.88 6.07 44.06 6.2C44.26 6.36 44.41 6.56 44.51 6.78C44.62 7.08 44.68 7.38 44.67 7.69C44.67 7.84 44.67 7.97 44.67 8.11C44.67 8.26 44.64 8.42 44.59 8.59C44.3 8.59 41.94 8.59 41.64 8.59C41.63 8.91 41.75 9.23 41.97 9.47C42.22 9.7 42.56 9.81 42.9 9.77C43.15 9.78 43.39 9.73 43.63 9.65C43.8 9.59 43.96 9.51 44.11 9.42C44.14 9.47 44.27 9.75 44.52 10.24C44.16 10.44 43.89 10.56 43.69 10.61C43.34 10.72 42.98 10.77 42.62 10.77ZM41.65 7.87C41.84 7.87 43.3 7.87 43.48 7.87C43.52 7.59 43.46 7.32 43.31 7.08C43.17 6.89 42.93 6.78 42.68 6.79C42.4 6.77 42.12 6.88 41.94 7.08C41.76 7.31 41.66 7.58 41.65 7.87Z" id="b2cw6T9YG"></path><path d="M42.62 10.77C41.97 10.81 41.33 10.56 40.88 10.09C40.49 9.56 40.3 8.92 40.34 8.27C40.28 7.6 40.51 6.93 40.96 6.42C41.42 5.99 42.05 5.77 42.7 5.8C42.95 5.8 43.2 5.84 43.43 5.9C43.66 5.96 43.88 6.07 44.06 6.2C44.26 6.36 44.41 6.56 44.51 6.78C44.62 7.08 44.68 7.38 44.67 7.69C44.67 7.84 44.67 7.97 44.67 8.11C44.67 8.26 44.64 8.42 44.59 8.59C44.3 8.59 41.94 8.59 41.64 8.59C41.63 8.91 41.75 9.23 41.97 9.47C42.22 9.7 42.56 9.81 42.9 9.77C43.15 9.78 43.39 9.73 43.63 9.65C43.8 9.59 43.96 9.51 44.11 9.42C44.14 9.47 44.27 9.75 44.52 10.24C44.16 10.44 43.89 10.56 43.69 10.61C43.34 10.72 42.98 10.77 42.62 10.77ZM41.65 7.87C41.84 7.87 43.3 7.87 43.48 7.87C43.52 7.59 43.46 7.32 43.31 7.08C43.17 6.89 42.93 6.78 42.68 6.79C42.4 6.77 42.12 6.88 41.94 7.08C41.76 7.31 41.66 7.58 41.65 7.87Z" id="oB1L0hVcg"></path><path d="M49.84 10.64C49.78 10.64 49.48 10.64 48.94 10.64C48.93 10.58 48.78 10.09 48.76 10.03C48.74 10.03 48.73 10.03 48.72 10.03C48.59 10.26 48.39 10.44 48.16 10.55C47.89 10.7 47.59 10.77 47.28 10.76C46.74 10.79 46.21 10.57 45.85 10.18C45.46 9.65 45.28 9.01 45.34 8.36C45.3 7.7 45.5 7.04 45.9 6.5C46.32 6.05 46.93 5.8 47.55 5.84C47.71 5.82 47.88 5.82 48.05 5.84C48.19 5.86 48.31 5.9 48.44 5.95C48.44 5.82 48.44 5.2 48.44 4.08C48.53 4.08 48.95 4.08 49.72 4.08C49.74 7.02 49.75 8.66 49.75 8.99C49.75 9.33 49.75 9.6 49.75 9.77C49.76 10.06 49.79 10.36 49.84 10.64ZM48.47 9.1C48.47 8.89 48.47 7.28 48.47 7.08C48.38 7.01 48.29 6.96 48.17 6.93C48.03 6.88 47.88 6.87 47.73 6.87C47.42 6.85 47.11 6.98 46.92 7.22C46.7 7.58 46.61 7.99 46.64 8.41C46.63 8.74 46.71 9.08 46.87 9.37C47.01 9.62 47.29 9.76 47.58 9.74C47.58 9.74 47.58 9.75 47.58 9.77C47.86 9.74 48.06 9.68 48.17 9.6C48.32 9.46 48.43 9.29 48.47 9.1Z" id="jmv5Fju2u"></path><path d="M49.84 10.64C49.78 10.64 49.48 10.64 48.94 10.64C48.93 10.58 48.78 10.09 48.76 10.03C48.74 10.03 48.73 10.03 48.72 10.03C48.59 10.26 48.39 10.44 48.16 10.55C47.89 10.7 47.59 10.77 47.28 10.76C46.74 10.79 46.21 10.57 45.85 10.18C45.46 9.65 45.28 9.01 45.34 8.36C45.3 7.7 45.5 7.04 45.9 6.5C46.32 6.05 46.93 5.8 47.55 5.84C47.71 5.82 47.88 5.82 48.05 5.84C48.19 5.86 48.31 5.9 48.44 5.95C48.44 5.82 48.44 5.2 48.44 4.08C48.53 4.08 48.95 4.08 49.72 4.08C49.74 7.02 49.75 8.66 49.75 8.99C49.75 9.33 49.75 9.6 49.75 9.77C49.76 10.06 49.79 10.36 49.84 10.64ZM48.47 9.1C48.47 8.89 48.47 7.28 48.47 7.08C48.38 7.01 48.29 6.96 48.17 6.93C48.03 6.88 47.88 6.87 47.73 6.87C47.42 6.85 47.11 6.98 46.92 7.22C46.7 7.58 46.61 7.99 46.64 8.41C46.63 8.74 46.71 9.08 46.87 9.37C47.01 9.62 47.29 9.76 47.58 9.74C47.58 9.74 47.58 9.75 47.58 9.77C47.86 9.74 48.06 9.68 48.17 9.6C48.32 9.46 48.43 9.29 48.47 9.1Z" id="f2pSYGo1Wd"></path><path d="M54.65 6.33C54.65 6.33 54.65 6.33 54.65 6.33C54.8 6.17 54.98 6.06 55.19 5.98C55.41 5.89 55.66 5.84 55.9 5.84C56.43 5.82 56.93 6.04 57.26 6.42C57.62 6.94 57.77 7.56 57.72 8.17C57.78 8.87 57.55 9.56 57.08 10.1C56.6 10.54 55.94 10.79 55.27 10.75C54.89 10.76 54.51 10.72 54.12 10.65C53.85 10.61 53.57 10.53 53.31 10.44C53.32 10.01 53.33 7.89 53.37 4.08C53.46 4.08 53.89 4.08 54.65 4.08C54.65 5.43 54.65 6.18 54.65 6.33ZM54.65 7.54C54.65 7.75 54.65 9.38 54.65 9.59C54.76 9.64 54.87 9.68 54.99 9.69C55.12 9.7 55.24 9.7 55.37 9.69C55.7 9.72 56 9.58 56.19 9.33C56.41 8.98 56.49 8.59 56.46 8.18C56.44 7.32 56.14 6.87 55.56 6.87C55.35 6.86 55.15 6.92 54.99 7.05C54.83 7.18 54.71 7.35 54.65 7.54Z" id="atLJuOcwc"></path><path d="M54.65 6.33C54.65 6.33 54.65 6.33 54.65 6.33C54.8 6.17 54.98 6.06 55.19 5.98C55.41 5.89 55.66 5.84 55.9 5.84C56.43 5.82 56.93 6.04 57.26 6.42C57.62 6.94 57.77 7.56 57.72 8.17C57.78 8.87 57.55 9.56 57.08 10.1C56.6 10.54 55.94 10.79 55.27 10.75C54.89 10.76 54.51 10.72 54.12 10.65C53.85 10.61 53.57 10.53 53.31 10.44C53.32 10.01 53.33 7.89 53.37 4.08C53.46 4.08 53.89 4.08 54.65 4.08C54.65 5.43 54.65 6.18 54.65 6.33ZM54.65 7.54C54.65 7.75 54.65 9.38 54.65 9.59C54.76 9.64 54.87 9.68 54.99 9.69C55.12 9.7 55.24 9.7 55.37 9.69C55.7 9.72 56 9.58 56.19 9.33C56.41 8.98 56.49 8.59 56.46 8.18C56.44 7.32 56.14 6.87 55.56 6.87C55.35 6.86 55.15 6.92 54.99 7.05C54.83 7.18 54.71 7.35 54.65 7.54Z" id="eKj1vAzO0"></path><path d="M60.56 9.31L60.68 8.54L61.43 5.92C62.22 5.92 62.66 5.92 62.74 5.92C61.85 8.45 61.36 9.86 61.26 10.14C61.13 10.48 61.01 10.81 60.89 11.11C60.8 11.37 60.67 11.64 60.52 11.88C60.39 12.07 60.24 12.24 60.06 12.37C59.88 12.49 59.67 12.55 59.46 12.54C59.17 12.56 58.9 12.51 58.64 12.39C58.66 12.3 58.86 11.51 58.88 11.41C58.96 11.45 59.07 11.47 59.17 11.47C59.34 11.47 59.5 11.4 59.6 11.29C59.78 11.11 59.89 10.87 59.93 10.62C59.79 10.32 59.1 8.75 57.86 5.95C57.96 5.95 58.48 5.95 59.4 5.95L60.32 8.59L60.49 9.31L60.56 9.31Z" id="b6VKP2XoPM"></path><path d="M60.56 9.31L60.68 8.54L61.43 5.92C62.22 5.92 62.66 5.92 62.74 5.92C61.85 8.45 61.36 9.86 61.26 10.14C61.13 10.48 61.01 10.81 60.89 11.11C60.8 11.37 60.67 11.64 60.52 11.88C60.39 12.07 60.24 12.24 60.06 12.37C59.88 12.49 59.67 12.55 59.46 12.54C59.17 12.56 58.9 12.51 58.64 12.39C58.66 12.3 58.86 11.51 58.88 11.41C58.96 11.45 59.07 11.47 59.17 11.47C59.34 11.47 59.5 11.4 59.6 11.29C59.78 11.11 59.89 10.87 59.93 10.62C59.79 10.32 59.1 8.75 57.86 5.95C57.96 5.95 58.48 5.95 59.4 5.95L60.32 8.59L60.49 9.31L60.56 9.31Z" id="a247SmGt4X"></path></defs><g><g><g><use xlink:href="#c1jtCzh5m4" opacity="1" fill="#231f20" fill-opacity="1"></use><g><use xlink:href="#c1jtCzh5m4" opacity="1" fill-opacity="0" stroke="#000000" stroke-width="1" stroke-opacity="0"></use></g></g><g><use xlink:href="#b3QGp43mjx" opacity="1" fill="#000000" fill-opacity="0"></use><g><use xlink:href="#b3QGp43mjx" opacity="1" fill-opacity="0" stroke="#000000" stroke-width="1" stroke-opacity="0"></use></g></g><g><use xlink:href="#c3WTgxtwgb" opacity="1" fill="#ffffff" fill-opacity="1"></use><g><use xlink:href="#c3WTgxtwgb" opacity="1" fill-opacity="0" stroke="#000000" stroke-width="1" stroke-opacity="0"></use></g></g><g><use xlink:href="#a2ydlhmvbL" opacity="1" fill="#000000" fill-opacity="0"></use><g><use xlink:href="#a2ydlhmvbL" opacity="1" fill-opacity="0" stroke="#000000" stroke-width="1" stroke-opacity="0"></use></g></g><g><use xlink:href="#a42LKwmz5" opacity="1" fill="#22b68a" fill-opacity="1"></use><g><use xlink:href="#a42LKwmz5" opacity="1" fill-opacity="0" stroke="#000000" stroke-width="1" stroke-opacity="0"></use></g></g><g><use xlink:href="#ctL3zcdY" opacity="1" fill="#000000" fill-opacity="0"></use><g><use xlink:href="#ctL3zcdY" opacity="1" fill-opacity="0" stroke="#000000" stroke-width="1" stroke-opacity="0"></use></g></g><g><use xlink:href="#a1V9crPdlE" opacity="1" fill="#ffffff" fill-opacity="1"></use><g><use xlink:href="#a1V9crPdlE" opacity="1" fill-opacity="0" stroke="#000000" stroke-width="1" stroke-opacity="0"></use></g></g><g><use xlink:href="#aSi7I7WYl" opacity="1" fill="#000000" fill-opacity="0"></use><g><use xlink:href="#aSi7I7WYl" opacity="1" fill-opacity="0" stroke="#000000" stroke-width="1" stroke-opacity="0"></use></g></g><g><use xlink:href="#bBO9LR9R6" opacity="1" fill="#ffffff" fill-opacity="1"></use><g><use xlink:href="#bBO9LR9R6" opacity="1" fill-opacity="0" stroke="#000000" stroke-width="1" stroke-opacity="0"></use></g></g><g><use xlink:href="#bBEbDgGEn" opacity="1" fill="#000000" fill-opacity="0"></use><g><use xlink:href="#bBEbDgGEn" opacity="1" fill-opacity="0" stroke="#000000" stroke-width="1" stroke-opacity="0"></use></g></g><g><use xlink:href="#fvcKbcsuk" opacity="1" fill="#ffffff" fill-opacity="1"></use><g><use xlink:href="#fvcKbcsuk" opacity="1" fill-opacity="0" stroke="#000000" stroke-width="1" stroke-opacity="0"></use></g></g><g><use xlink:href="#a6A8Vwjg0" opacity="1" fill="#000000" fill-opacity="0"></use><g><use xlink:href="#a6A8Vwjg0" opacity="1" fill-opacity="0" stroke="#000000" stroke-width="1" stroke-opacity="0"></use></g></g><g><use xlink:href="#c2Lu1apVs8" opacity="1" fill="#ffffff" fill-opacity="1"></use><g><use xlink:href="#c2Lu1apVs8" opacity="1" fill-opacity="0" stroke="#000000" stroke-width="1" stroke-opacity="0"></use></g></g><g><use xlink:href="#a1gLfYbaDO" opacity="1" fill="#000000" fill-opacity="0"></use><g><use xlink:href="#a1gLfYbaDO" opacity="1" fill-opacity="0" stroke="#000000" stroke-width="1" stroke-opacity="0"></use></g></g><g><use xlink:href="#b28V8rsymp" opacity="1" fill="#ffffff" fill-opacity="1"></use><g><use xlink:href="#b28V8rsymp" opacity="1" fill-opacity="0" stroke="#000000" stroke-width="1" stroke-opacity="0"></use></g></g><g><use xlink:href="#arUE0B22Z" opacity="1" fill="#000000" fill-opacity="0"></use><g><use xlink:href="#arUE0B22Z" opacity="1" fill-opacity="0" stroke="#000000" stroke-width="1" stroke-opacity="0"></use></g></g><g><use xlink:href="#afFATavM7" opacity="1" fill="#ffffff" fill-opacity="1"></use><g><use xlink:href="#afFATavM7" opacity="1" fill-opacity="0" stroke="#000000" stroke-width="1" stroke-opacity="0"></use></g></g><g><use xlink:href="#awx2qBxmV" opacity="1" fill="#000000" fill-opacity="0"></use><g><use xlink:href="#awx2qBxmV" opacity="1" fill-opacity="0" stroke="#000000" stroke-width="1" stroke-opacity="0"></use></g></g><g><use xlink:href="#a39kO9RfB" opacity="1" fill="#ffffff" fill-opacity="1"></use><g><use xlink:href="#a39kO9RfB" opacity="1" fill-opacity="0" stroke="#000000" stroke-width="1" stroke-opacity="0"></use></g></g><g><use xlink:href="#c45I0cIkRr" opacity="1" fill="#000000" fill-opacity="0"></use><g><use xlink:href="#c45I0cIkRr" opacity="1" fill-opacity="0" stroke="#000000" stroke-width="1" stroke-opacity="0"></use></g></g><g><use xlink:href="#iRKY6Wf4" opacity="1" fill="#ffffff" fill-opacity="1"></use><g><use xlink:href="#iRKY6Wf4" opacity="1" fill-opacity="0" stroke="#000000" stroke-width="1" stroke-opacity="0"></use></g></g><g><use xlink:href="#e7ky2Orsi" opacity="1" fill="#000000" fill-opacity="0"></use><g><use xlink:href="#e7ky2Orsi" opacity="1" fill-opacity="0" stroke="#000000" stroke-width="1" stroke-opacity="0"></use></g></g><g><use xlink:href="#b2cw6T9YG" opacity="1" fill="#ffffff" fill-opacity="1"></use><g><use xlink:href="#b2cw6T9YG" opacity="1" fill-opacity="0" stroke="#000000" stroke-width="1" stroke-opacity="0"></use></g></g><g><use xlink:href="#oB1L0hVcg" opacity="1" fill="#000000" fill-opacity="0"></use><g><use xlink:href="#oB1L0hVcg" opacity="1" fill-opacity="0" stroke="#000000" stroke-width="1" stroke-opacity="0"></use></g></g><g><use xlink:href="#jmv5Fju2u" opacity="1" fill="#ffffff" fill-opacity="1"></use><g><use xlink:href="#jmv5Fju2u" opacity="1" fill-opacity="0" stroke="#000000" stroke-width="1" stroke-opacity="0"></use></g></g><g><use xlink:href="#f2pSYGo1Wd" opacity="1" fill="#000000" fill-opacity="0"></use><g><use xlink:href="#f2pSYGo1Wd" opacity="1" fill-opacity="0" stroke="#000000" stroke-width="1" stroke-opacity="0"></use></g></g><g><use xlink:href="#atLJuOcwc" opacity="1" fill="#ffffff" fill-opacity="1"></use><g><use xlink:href="#atLJuOcwc" opacity="1" fill-opacity="0" stroke="#000000" stroke-width="1" stroke-opacity="0"></use></g></g><g><use xlink:href="#eKj1vAzO0" opacity="1" fill="#000000" fill-opacity="0"></use><g><use xlink:href="#eKj1vAzO0" opacity="1" fill-opacity="0" stroke="#000000" stroke-width="1" stroke-opacity="0"></use></g></g><g><use xlink:href="#b6VKP2XoPM" opacity="1" fill="#ffffff" fill-opacity="1"></use><g><use xlink:href="#b6VKP2XoPM" opacity="1" fill-opacity="0" stroke="#000000" stroke-width="1" stroke-opacity="0"></use></g></g><g><use xlink:href="#a247SmGt4X" opacity="1" fill="#000000" fill-opacity="0"></use><g><use xlink:href="#a247SmGt4X" opacity="1" fill-opacity="0" stroke="#000000" stroke-width="1" stroke-opacity="0"></use></g></g></g></g></svg>